<svg width="1064" height="493" viewBox="0 0 1064 493" fill="none" xmlns="http://www.w3.org/2000/svg">
<path d="M222.106 335.95C219.391 338.446 215.067 340.698 209.134 342.706C203.4 344.708 197.035 345.831 190.04 346.075C181.645 346.368 174.407 345.42 168.327 343.231C162.24 340.842 158.02 337.487 155.668 333.167C153.309 328.646 150.405 322.844 146.955 315.76C143.499 308.476 139.815 300.4 135.903 291.531C132.191 282.655 128.262 273.287 124.115 263.425C120.161 253.357 116.304 243.186 112.543 232.911C108.782 222.636 105.228 212.553 101.881 202.664C98.5337 192.775 95.6073 183.471 93.1015 174.754C95.8021 171.858 99.7124 169.219 104.832 166.839C110.145 164.252 115.8 162.854 121.796 162.645C129.192 162.387 135.244 163.776 139.953 166.814C144.855 169.644 148.551 175.219 151.043 183.537C157.124 202.936 163.177 221.536 169.202 239.337C175.42 256.931 181.865 275.317 188.539 294.496L190.337 294.433C195.078 275.456 199.859 254.777 204.681 232.395C209.703 210.006 214.428 187.727 218.857 165.559C222.392 163.635 226.138 162.003 230.093 160.664C234.249 159.318 238.925 158.555 244.122 158.373C251.517 158.115 257.873 159.594 263.188 162.81C268.497 165.827 271.284 171.133 271.549 178.728C271.702 183.126 270.826 189.56 268.921 198.032C267.215 206.496 264.849 216.085 261.821 226.797C258.985 237.302 255.668 248.325 251.869 259.865C248.269 271.397 244.548 282.334 240.707 292.674C237.058 302.808 233.571 311.835 230.246 319.756C226.913 327.477 224.2 332.875 222.106 335.95ZM288.39 153.225C288.125 145.63 290.4 139.146 295.216 133.775C300.231 128.397 306.936 125.561 315.331 125.268C323.726 124.975 330.512 127.339 335.691 132.362C341.069 137.377 343.891 143.682 344.156 151.278C344.421 158.873 342.046 165.36 337.031 170.738C332.216 176.109 325.61 178.942 317.215 179.235C308.821 179.528 301.934 177.167 296.556 172.152C291.377 167.129 288.655 160.82 288.39 153.225ZM348.249 337.248C346.064 337.725 342.784 338.339 338.407 339.093C334.238 340.039 329.954 340.589 325.557 340.742C321.16 340.896 317.152 340.735 313.533 340.261C310.114 339.78 307.174 338.682 304.713 336.967C302.251 335.252 300.269 332.92 298.765 329.971C297.454 326.814 296.711 322.738 296.537 317.741L292.275 195.715C294.46 195.239 297.641 194.627 301.817 193.881C306.187 192.928 310.57 192.375 314.967 192.221C319.365 192.068 323.273 192.231 326.692 192.712C330.31 193.186 333.35 194.281 335.812 195.996C338.273 197.711 340.159 200.147 341.47 203.303C342.974 206.252 343.813 210.225 343.988 215.222L348.249 337.248ZM528.972 258.293C529.404 270.685 527.893 281.845 524.437 291.771C520.975 301.498 515.86 309.782 509.095 316.622C502.53 323.455 494.509 328.738 485.034 332.471C475.558 336.204 464.924 338.277 453.131 338.689C441.338 339.1 430.582 337.675 420.862 334.412C411.142 331.149 402.669 326.342 395.443 319.99C388.41 313.432 382.827 305.422 378.695 295.96C374.562 286.499 372.286 275.772 371.867 263.779C371.455 251.986 372.981 241.226 376.444 231.5C379.906 221.773 384.92 213.493 391.486 206.66C398.244 199.619 406.358 194.133 415.826 190.2C425.295 186.267 435.925 184.095 447.718 183.683C459.511 183.271 470.271 184.797 479.998 188.259C489.717 191.522 498.094 196.433 505.127 202.991C512.353 209.343 518.032 217.25 522.165 226.711C526.298 236.173 528.567 246.7 528.972 258.293ZM424.035 261.957C424.461 274.15 427.088 283.464 431.915 289.899C436.936 296.128 443.644 299.096 452.038 298.802C460.433 298.509 466.714 294.988 470.881 288.238C475.248 281.482 477.222 272.107 476.803 260.115C476.385 248.122 473.765 239.008 468.944 232.772C464.117 226.337 457.506 223.266 449.111 223.559C440.716 223.852 434.335 227.377 429.968 234.133C425.594 240.69 423.617 249.965 424.035 261.957ZM608.24 328.169C606.055 328.646 602.774 329.26 598.398 330.014C594.229 330.96 589.945 331.509 585.548 331.663C581.15 331.817 577.142 331.656 573.524 331.182C570.105 330.701 567.165 329.603 564.703 327.888C562.242 326.173 560.259 323.841 558.756 320.892C557.445 317.735 556.702 313.659 556.527 308.662L550.455 134.768C552.64 134.291 555.82 133.68 559.997 132.934C564.366 131.981 568.749 131.427 573.147 131.274C577.544 131.12 581.452 131.284 584.871 131.765C588.49 132.239 591.53 133.333 593.991 135.049C596.453 136.764 598.339 139.199 599.65 142.356C601.154 145.305 601.993 149.278 602.167 154.275L608.24 328.169ZM717.633 329.452C705.84 329.864 694.791 328.649 684.486 325.807C674.373 322.758 665.404 318.068 657.578 311.737C649.952 305.399 643.766 297.31 639.02 287.47C634.474 277.623 631.967 266.003 631.499 252.611C631.038 239.419 632.743 228.053 636.612 218.512C640.674 208.764 646.099 200.77 652.885 194.529C659.664 188.089 667.502 183.312 676.399 180.2C685.289 176.888 694.431 175.068 703.825 174.74C714.419 174.37 724.069 175.634 732.775 178.532C741.682 181.423 749.331 185.558 755.722 190.938C762.314 196.312 767.445 202.836 771.115 210.513C774.985 218.183 777.08 226.615 777.401 235.809C777.639 242.605 775.921 247.868 772.249 251.598C768.577 255.329 763.361 257.812 756.6 259.049L682.932 272.728C685.361 279.248 690.033 284.088 696.948 287.248C703.855 290.209 711.706 291.536 720.501 291.229C728.696 290.942 736.356 289.674 743.482 287.424C750.801 284.967 756.71 282.259 761.209 279.301C764.477 281.188 767.273 283.892 769.598 287.413C771.922 290.934 773.154 294.693 773.293 298.691C773.608 307.685 769.644 314.528 761.403 319.218C755.125 322.839 748.01 325.389 740.057 326.868C732.103 328.346 724.629 329.208 717.633 329.452ZM705.124 211.917C700.327 212.084 696.157 213.031 692.615 214.755C689.273 216.473 686.548 218.669 684.44 221.345C682.325 223.82 680.724 226.677 679.636 229.917C678.742 232.95 678.25 236.07 678.162 239.275L729.138 229.089C728.398 225.113 726.06 221.192 722.123 217.327C718.185 213.462 712.519 211.659 705.124 211.917ZM854.181 269.75C854.363 274.947 856.091 278.589 859.366 280.676C862.84 282.756 867.576 283.691 873.572 283.482C876.57 283.377 879.662 283.069 882.846 282.558C886.023 281.846 888.797 281.049 891.167 280.166C893.043 282.302 894.629 284.748 895.926 287.504C897.416 290.054 898.227 293.227 898.36 297.025C898.625 304.62 895.943 310.918 890.314 315.917C884.885 320.91 874.975 323.657 860.584 324.16C842.995 324.774 829.263 321.251 819.39 313.591C809.717 305.924 804.566 293.096 803.938 275.107L799.456 146.785C801.634 146.109 804.711 145.401 808.688 144.662C812.857 143.716 817.241 143.162 821.838 143.002C830.633 142.695 837.484 144.056 842.393 147.087C847.495 149.911 850.22 156.319 850.569 166.313L851.239 185.502L890.515 184.13C891.791 186.287 892.988 189.047 894.106 192.41C895.417 195.566 896.143 199.143 896.282 203.14C896.526 210.136 895.105 215.289 892.019 218.598C889.126 221.701 885.08 223.344 879.884 223.525L852.6 224.478L854.181 269.75ZM974.398 141.577C974.559 146.174 974.693 152.873 974.8 161.675C974.9 170.277 974.829 179.685 974.585 189.899C974.334 199.914 973.887 210.036 973.244 220.265C972.593 230.294 971.698 239.03 970.557 246.475C969.778 247.102 968.6 247.744 967.022 248.399C965.444 249.055 963.762 249.614 961.977 250.076C960.192 250.539 958.404 250.901 956.612 251.164C954.82 251.427 953.225 251.583 951.826 251.631C946.029 251.834 941.101 251.105 937.04 249.446C933.18 247.78 930.659 244.366 929.478 239.204C928.318 234.641 927.175 227.677 926.047 218.311C925.119 208.937 924.164 198.765 923.18 187.792C922.197 176.82 921.316 165.944 920.54 155.164C919.963 144.378 919.542 135.187 919.277 127.592C923.198 125.253 927.635 123.397 932.591 122.024C937.739 120.443 942.811 119.566 947.808 119.391C956.003 119.105 962.365 120.784 966.895 124.428C971.625 128.065 974.126 133.781 974.398 141.577ZM924.509 294.611C924.223 286.416 926.487 279.633 931.303 274.261C936.311 268.683 943.313 265.737 952.307 265.423C961.302 265.109 968.392 267.563 973.577 272.785C978.955 277.801 981.788 284.406 982.074 292.601C982.36 300.796 979.999 307.682 974.99 313.26C970.175 318.632 963.27 321.475 954.275 321.789C945.281 322.103 938.095 319.752 932.716 314.737C927.531 309.515 924.795 302.806 924.509 294.611Z" fill="#8630D1"/>
<path d="M148.89 441.222C148.915 440.741 148.969 440.198 149.052 439.59C149.139 439.087 149.253 438.489 149.396 437.796C149.559 437.081 149.803 436.312 150.128 435.488C151.266 435.823 152.423 436.116 153.599 436.367C154.607 436.582 155.708 436.773 156.902 436.94C158.096 437.106 159.234 437.171 160.317 437.133C161.962 437.076 163.332 436.903 164.426 436.614C165.542 436.325 166.425 435.93 167.074 435.427C167.744 434.904 168.212 434.272 168.478 433.534C168.743 432.774 168.858 431.905 168.824 430.926C168.786 429.823 168.597 428.891 168.258 428.132C167.939 427.371 167.458 426.721 166.814 426.181C166.19 425.64 165.393 425.188 164.421 424.826C163.45 424.464 162.302 424.118 160.977 423.789C158.665 423.245 156.705 422.636 155.097 421.962C153.488 421.268 152.168 420.459 151.135 419.536C150.123 418.613 149.377 417.555 148.898 416.363C148.418 415.149 148.15 413.762 148.096 412.201C148.017 409.952 148.293 408.014 148.925 406.387C149.576 404.759 150.52 403.413 151.754 402.348C153.009 401.283 154.534 400.479 156.329 399.937C158.144 399.394 160.177 399.083 162.425 399.005C164.153 398.945 165.667 399.027 166.968 399.253C168.289 399.478 169.403 399.731 170.309 400.012C171.363 400.35 172.284 400.745 173.071 401.197C173.025 401.678 172.918 402.203 172.75 402.772C172.601 403.257 172.391 403.827 172.122 404.482C171.853 405.138 171.472 405.85 170.977 406.617C170.338 406.223 169.596 405.873 168.752 405.569C168.013 405.303 167.119 405.074 166.07 404.881C165.041 404.667 163.85 404.584 162.497 404.631C161.018 404.683 159.773 404.841 158.761 405.105C157.769 405.369 156.96 405.762 156.332 406.285C155.703 406.786 155.256 407.417 154.991 408.176C154.745 408.914 154.641 409.794 154.676 410.814C154.716 411.959 154.895 412.912 155.214 413.672C155.532 414.411 156.023 415.04 156.687 415.559C157.35 416.057 158.199 416.486 159.233 416.846C160.288 417.205 161.552 417.568 163.024 417.933C165.231 418.461 167.117 419.041 168.682 419.674C170.246 420.307 171.524 421.065 172.513 421.948C173.524 422.83 174.27 423.898 174.751 425.153C175.253 426.386 175.535 427.888 175.597 429.658C175.673 431.844 175.458 433.759 174.953 435.402C174.447 437.025 173.598 438.399 172.408 439.525C171.217 440.651 169.663 441.507 167.745 442.096C165.827 442.705 163.505 443.057 160.777 443.152C159.153 443.209 157.619 443.137 156.173 442.937C154.729 442.759 153.47 442.542 152.398 442.288C151.116 441.978 149.947 441.623 148.89 441.222ZM184.132 414.413L180.041 414.556C180.012 414.328 179.983 414.078 179.952 413.809C179.924 413.58 179.893 413.31 179.862 412.999C179.851 412.686 179.839 412.343 179.826 411.968C179.813 411.593 179.811 411.249 179.821 410.936C179.83 410.603 179.847 410.195 179.872 409.715L183.963 409.572L183.79 404.607L187.24 400.421L190.019 400.324L190.334 409.35L199.173 409.041C199.222 409.248 199.262 409.497 199.293 409.787C199.344 410.077 199.375 410.358 199.385 410.628C199.401 411.107 199.365 411.546 199.274 411.946C199.205 412.344 199.123 412.691 199.029 412.986C198.916 413.324 198.781 413.63 198.624 413.907L190.503 414.191L191.136 432.304C191.189 433.824 191.477 434.919 192.001 435.589C192.546 436.258 193.38 436.573 194.504 436.533C194.983 436.517 195.481 436.447 195.998 436.325C196.535 436.181 197.04 436.017 197.513 435.834C198.048 435.628 198.592 435.4 199.147 435.152C199.582 435.678 199.923 436.198 200.17 436.711C200.438 437.222 200.632 437.685 200.75 438.097C200.892 438.572 200.98 439.017 201.016 439.433C200.447 439.849 199.803 440.226 199.085 440.563C198.449 440.857 197.687 441.123 196.799 441.362C195.912 441.623 194.885 441.773 193.719 441.814C192.095 441.871 190.724 441.71 189.606 441.332C188.51 440.974 187.604 440.412 186.89 439.645C186.195 438.856 185.681 437.873 185.348 436.697C185.015 435.499 184.821 434.12 184.766 432.558L184.132 414.413ZM205.013 408.837L211.696 408.604L212.425 429.466C212.503 431.694 212.998 433.334 213.91 434.386C214.822 435.417 216.308 435.897 218.369 435.825C219.369 435.79 220.271 435.675 221.078 435.48C221.884 435.285 222.585 435.063 223.181 434.813C223.859 434.539 224.463 434.226 224.993 433.874L224.095 408.171L230.81 407.936L231.744 434.701L234.635 437.79L234.704 439.757L228.676 439.968L226.123 437.587L224.936 437.628C224.774 437.759 224.47 437.999 224.023 438.348C223.577 438.697 222.996 439.072 222.28 439.472C221.585 439.851 220.773 440.192 219.846 440.495C218.918 440.798 217.903 440.969 216.799 441.008C215.05 441.069 213.5 440.863 212.15 440.389C210.799 439.915 209.659 439.214 208.731 438.288C207.801 437.341 207.084 436.198 206.578 434.861C206.093 433.502 205.821 431.979 205.762 430.293L205.013 408.837ZM238.788 424.199C238.684 421.222 239.011 418.625 239.767 416.41C240.524 414.195 241.585 412.344 242.95 410.858C244.337 409.371 245.955 408.252 247.805 407.499C249.654 406.726 251.63 406.302 253.733 406.229C254.524 406.201 255.233 406.218 255.861 406.28C256.488 406.32 257.022 406.385 257.462 406.474C257.987 406.56 258.449 406.669 258.85 406.801L258.4 393.934L265.053 393.701L266.442 433.49L269.302 436.579L269.37 438.547L263.124 438.765L260.883 436.373L259.821 436.41C259.721 436.518 259.51 436.744 259.188 437.089C258.888 437.433 258.441 437.792 257.85 438.167C257.279 438.542 256.562 438.89 255.698 439.212C254.854 439.533 253.849 439.714 252.684 439.755C251.143 439.809 249.57 439.551 247.966 438.981C246.362 438.412 244.892 437.494 243.555 436.227C242.239 434.96 241.14 433.341 240.258 431.371C239.376 429.38 238.886 426.989 238.788 424.199ZM245.784 423.955C245.852 425.891 246.107 427.539 246.551 428.9C247.015 430.259 247.638 431.374 248.419 432.243C249.199 433.091 250.137 433.705 251.235 434.083C252.331 434.441 253.556 434.596 254.909 434.549C255.43 434.531 255.979 434.428 256.556 434.241C257.133 434.054 257.657 433.838 258.128 433.592C258.682 433.344 259.224 433.043 259.754 432.691L259.017 411.579C258.74 411.422 258.328 411.27 257.781 411.122C257.255 410.974 256.523 410.916 255.586 410.948C252.317 411.063 249.825 412.234 248.111 414.461C246.416 416.668 245.64 419.832 245.784 423.955ZM272.759 422.763C272.654 419.764 272.928 417.17 273.582 414.979C274.235 412.788 275.193 410.973 276.456 409.532C277.719 408.091 279.245 407.016 281.034 406.308C282.842 405.577 284.84 405.174 287.026 405.098C289.046 405.027 290.859 405.308 292.465 405.94C294.092 406.55 295.478 407.45 296.624 408.64C297.771 409.83 298.665 411.268 299.308 412.955C299.95 414.642 300.308 416.516 300.38 418.577C300.404 419.285 300.396 419.942 300.355 420.548C300.313 421.154 300.259 421.677 300.191 422.117C300.126 422.641 300.048 423.113 299.959 423.533L279.468 424.154C279.553 426.007 279.805 427.54 280.223 428.756C280.64 429.95 281.225 430.889 281.978 431.571C282.753 432.253 283.707 432.72 284.841 432.972C285.975 433.204 287.312 433.292 288.853 433.239C290.165 433.193 291.338 433.068 292.374 432.865C293.409 432.663 294.287 432.434 295.007 432.179C295.832 431.9 296.571 431.583 297.226 431.226C297.563 431.944 297.826 432.612 298.015 433.231C298.224 433.849 298.378 434.386 298.477 434.841C298.58 435.38 298.659 435.856 298.715 436.271C298.04 436.649 297.218 436.991 296.249 437.295C295.424 437.553 294.411 437.797 293.21 438.027C292.01 438.277 290.619 438.43 289.036 438.485C286.538 438.573 284.3 438.369 282.323 437.875C280.368 437.381 278.691 436.522 277.293 435.299C275.915 434.055 274.837 432.415 274.057 430.378C273.297 428.32 272.864 425.782 272.759 422.763ZM293.706 419.092L293.669 418.03C293.623 416.718 293.416 415.569 293.048 414.581C292.7 413.571 292.233 412.733 291.647 412.066C291.061 411.398 290.377 410.901 289.594 410.574C288.811 410.247 287.972 410.099 287.077 410.13C285.765 410.176 284.616 410.393 283.629 410.782C282.641 411.15 281.817 411.721 281.156 412.495C280.515 413.247 280.048 414.211 279.756 415.389C279.463 416.566 279.346 417.967 279.402 419.591L293.706 419.092ZM307.338 410.986L304.782 408.543L304.659 405.013L310.405 404.813L313.176 407.155L314.076 406.936C314.217 406.806 314.542 406.576 315.052 406.245C315.582 405.914 316.227 405.579 316.987 405.24C317.767 404.9 318.653 404.598 319.644 404.334C320.635 404.049 321.682 403.887 322.786 403.849C324.535 403.788 326.095 403.994 327.466 404.467C328.859 404.94 330.04 405.649 331.011 406.595C331.982 407.52 332.73 408.651 333.256 409.987C333.782 411.324 334.075 412.835 334.134 414.522L334.893 436.259L328.178 436.493L327.442 415.412C327.363 413.143 326.826 411.494 325.831 410.465C324.856 409.415 323.338 408.926 321.277 408.998C320.257 409.034 319.313 409.161 318.445 409.379C317.576 409.576 316.813 409.801 316.154 410.053C315.393 410.33 314.685 410.646 314.03 411.003L314.936 436.956L308.253 437.189L307.338 410.986ZM344.097 408.827L340.006 408.97C339.977 408.741 339.948 408.492 339.917 408.222C339.889 407.994 339.858 407.724 339.827 407.413C339.816 407.1 339.804 406.757 339.791 406.382C339.778 406.007 339.776 405.663 339.786 405.35C339.795 405.016 339.812 404.609 339.837 404.129L343.928 403.986L343.755 399.02L347.205 394.835L349.984 394.738L350.299 403.764L359.138 403.455C359.187 403.662 359.227 403.911 359.258 404.201C359.309 404.491 359.34 404.772 359.35 405.042C359.366 405.521 359.329 405.96 359.239 406.359C359.17 406.758 359.088 407.105 358.994 407.4C358.881 407.737 358.746 408.044 358.589 408.321L350.468 408.604L351.101 426.718C351.154 428.238 351.442 429.333 351.966 430.003C352.511 430.672 353.345 430.986 354.469 430.947C354.948 430.93 355.446 430.861 355.963 430.739C356.5 430.595 357.005 430.431 357.478 430.248C358.013 430.042 358.557 429.814 359.112 429.566C359.547 430.092 359.888 430.612 360.135 431.125C360.403 431.636 360.597 432.099 360.715 432.511C360.857 432.986 360.945 433.431 360.981 433.847C360.412 434.263 359.768 434.639 359.05 434.977C358.414 435.27 357.652 435.537 356.764 435.776C355.877 436.037 354.85 436.187 353.684 436.228C352.06 436.284 350.689 436.124 349.571 435.746C348.475 435.388 347.569 434.826 346.855 434.059C346.16 433.27 345.646 432.287 345.313 431.111C344.98 429.913 344.786 428.534 344.731 426.972L344.097 408.827ZM382.202 425.476C382.141 423.748 382.34 422.271 382.797 421.046C383.255 419.821 383.949 418.807 384.88 418.003C385.832 417.198 386.988 416.585 388.349 416.162C389.73 415.718 391.314 415.412 393.101 415.246L400.053 414.628L399.965 412.129C399.926 411.005 399.79 410.082 399.556 409.361C399.343 408.638 399 408.067 398.527 407.645C398.053 407.224 397.429 406.944 396.653 406.804C395.896 406.643 394.956 406.582 393.832 406.621C392.708 406.66 391.64 406.823 390.628 407.108C389.638 407.393 388.773 407.694 388.033 408.012C387.15 408.397 386.342 408.821 385.607 409.285C385.127 408.655 384.741 408.054 384.45 407.48C384.158 406.886 383.931 406.352 383.769 405.878C383.562 405.343 383.419 404.827 383.339 404.33C384.321 403.795 385.378 403.32 386.51 402.906C387.498 402.538 388.633 402.196 389.914 401.88C391.216 401.563 392.586 401.38 394.022 401.33C396.396 401.247 398.371 401.387 399.947 401.748C401.523 402.11 402.784 402.702 403.73 403.524C404.696 404.324 405.378 405.363 405.777 406.642C406.197 407.899 406.437 409.402 406.498 411.151L407.106 428.577L409.841 431.671L409.91 433.639L404.132 433.841L401.63 431.145L400.506 431.184C400.405 431.292 400.133 431.541 399.688 431.932C399.263 432.301 398.704 432.707 398.01 433.148C397.337 433.567 396.558 433.949 395.674 434.292C394.81 434.635 393.879 434.824 392.879 434.859C391.318 434.914 389.894 434.734 388.608 434.32C387.321 433.886 386.205 433.258 385.259 432.436C384.333 431.593 383.6 430.587 383.058 429.417C382.537 428.226 382.252 426.913 382.202 425.476ZM388.99 424.676C389.024 425.634 389.187 426.431 389.48 427.067C389.773 427.682 390.165 428.168 390.657 428.527C391.17 428.884 391.772 429.123 392.464 429.245C393.177 429.366 393.961 429.412 394.814 429.382C395.606 429.354 396.341 429.235 397.022 429.023C397.723 428.791 398.329 428.54 398.841 428.272C399.435 427.98 399.986 427.638 400.493 427.245L400.2 418.844L393.937 419.469C392.96 419.566 392.144 419.761 391.487 420.055C390.851 420.348 390.343 420.72 389.962 421.171C389.582 421.622 389.319 422.153 389.174 422.762C389.027 423.351 388.966 423.989 388.99 424.676ZM415.334 407.215L412.779 404.771L412.656 401.242L418.402 401.041L421.173 403.384L422.072 403.165C422.214 403.035 422.539 402.804 423.049 402.474C423.579 402.143 424.224 401.808 424.984 401.468C425.764 401.128 426.65 400.826 427.641 400.563C428.632 400.278 429.679 400.116 430.782 400.078C432.531 400.017 434.091 400.223 435.463 400.696C436.855 401.168 438.037 401.878 439.008 402.823C439.979 403.748 440.727 404.879 441.253 406.216C441.779 407.553 442.072 409.064 442.13 410.751L442.89 432.487L436.175 432.722L435.439 411.641C435.359 409.371 434.822 407.722 433.828 406.694C432.853 405.644 431.335 405.155 429.274 405.227C428.253 405.263 427.309 405.39 426.441 405.607C425.573 405.805 424.809 406.029 424.151 406.282C423.389 406.558 422.681 406.875 422.027 407.231L422.933 433.184L416.249 433.418L415.334 407.215ZM449.285 416.848C449.181 413.871 449.507 411.275 450.264 409.059C451.02 406.844 452.081 404.993 453.447 403.507C454.834 402.021 456.452 400.901 458.302 400.148C460.151 399.375 462.127 398.952 464.23 398.878C465.021 398.851 465.73 398.868 466.358 398.929C466.984 398.97 467.518 399.034 467.959 399.123C468.483 399.209 468.946 399.318 469.346 399.45L468.897 386.583L475.549 386.351L476.939 426.139L479.798 429.228L479.867 431.196L473.621 431.414L471.38 429.022L470.318 429.059C470.217 429.167 470.006 429.393 469.685 429.738C469.384 430.082 468.938 430.442 468.347 430.817C467.776 431.191 467.059 431.539 466.194 431.861C465.351 432.182 464.346 432.363 463.18 432.404C461.639 432.458 460.067 432.2 458.463 431.631C456.859 431.061 455.388 430.143 454.052 428.877C452.736 427.609 451.637 425.991 450.755 424.02C449.873 422.029 449.383 419.638 449.285 416.848ZM456.281 416.604C456.348 418.54 456.604 420.189 457.048 421.549C457.512 422.909 458.135 424.023 458.915 424.892C459.696 425.74 460.634 426.354 461.731 426.732C462.828 427.09 464.053 427.246 465.406 427.198C465.927 427.18 466.475 427.078 467.053 426.891C467.63 426.704 468.154 426.487 468.625 426.242C469.179 425.993 469.721 425.693 470.251 425.341L469.513 404.228C469.237 404.071 468.825 403.919 468.278 403.771C467.751 403.623 467.02 403.565 466.083 403.598C462.814 403.712 460.322 404.883 458.607 407.111C456.912 409.317 456.137 412.482 456.281 416.604ZM502.778 387.964C503.839 387.885 505.013 387.792 506.302 387.684C507.425 387.604 508.735 387.516 510.233 387.422C511.751 387.327 513.416 387.248 515.228 387.185C518.476 387.072 521.364 387.409 523.893 388.196C526.421 388.962 528.57 390.19 530.338 391.879C532.127 393.568 533.505 395.719 534.472 398.333C535.46 400.946 536.016 404.032 536.14 407.593C536.264 411.153 535.895 414.303 535.032 417.043C534.168 419.763 532.872 422.059 531.145 423.933C529.438 425.806 527.331 427.245 524.823 428.25C522.315 429.255 519.468 429.813 516.282 429.924L504.258 430.344L502.778 387.964ZM517.153 424.422C519.09 424.354 520.804 423.888 522.295 423.023C523.786 422.137 525.037 420.957 526.049 419.483C527.06 417.989 527.813 416.264 528.307 414.308C528.801 412.331 529.009 410.218 528.93 407.97C528.839 405.367 528.478 403.097 527.848 401.159C527.217 399.201 526.347 397.574 525.239 396.279C524.13 394.983 522.804 394.029 521.261 393.416C519.718 392.803 517.978 392.53 516.042 392.598C514.98 392.635 514.064 392.677 513.295 392.725C512.525 392.772 511.901 392.815 511.423 392.853C510.862 392.914 510.395 392.961 510.021 392.995L511.126 424.632L517.153 424.422ZM540.408 413.416C540.304 410.418 540.578 407.823 541.231 405.633C541.884 403.442 542.842 401.626 544.105 400.185C545.368 398.744 546.894 397.67 548.683 396.961C550.492 396.231 552.489 395.827 554.676 395.751C556.695 395.681 558.508 395.961 560.114 396.593C561.741 397.203 563.127 398.103 564.274 399.293C565.42 400.483 566.315 401.922 566.957 403.609C567.6 405.295 567.957 407.17 568.029 409.231C568.054 409.939 568.045 410.596 568.004 411.202C567.963 411.808 567.908 412.331 567.84 412.771C567.775 413.294 567.698 413.766 567.608 414.186L547.117 414.808C547.203 416.66 547.454 418.194 547.872 419.409C548.289 420.604 548.874 421.542 549.628 422.225C550.402 422.906 551.356 423.373 552.491 423.626C553.625 423.857 554.962 423.946 556.502 423.892C557.814 423.846 558.988 423.722 560.023 423.519C561.058 423.316 561.936 423.087 562.657 422.833C563.481 422.554 564.22 422.236 564.875 421.88C565.213 422.598 565.476 423.266 565.664 423.885C565.873 424.503 566.027 425.039 566.127 425.495C566.229 426.033 566.308 426.51 566.364 426.925C565.69 427.303 564.868 427.644 563.899 427.949C563.074 428.207 562.061 428.451 560.86 428.68C559.659 428.931 558.268 429.084 556.686 429.139C554.187 429.226 551.95 429.023 549.973 428.529C548.017 428.034 546.34 427.176 544.942 425.953C543.565 424.709 542.486 423.068 541.706 421.032C540.946 418.974 540.514 416.435 540.408 413.416ZM561.355 409.745L561.318 408.683C561.273 407.372 561.066 406.222 560.698 405.234C560.35 404.225 559.883 403.387 559.297 402.719C558.71 402.052 558.026 401.554 557.243 401.227C556.46 400.9 555.621 400.752 554.726 400.784C553.414 400.829 552.265 401.047 551.278 401.436C550.29 401.804 549.466 402.374 548.805 403.148C548.164 403.9 547.698 404.865 547.405 406.042C547.113 407.22 546.995 408.621 547.052 410.245L561.355 409.745ZM570.915 396.06L577.63 395.825L585.603 420.906L586.538 424.375L587.196 420.85L593.183 395.282L599.804 395.051L591.424 427.3L581.617 427.643L570.915 396.06ZM603.682 411.206C603.578 408.208 603.852 405.614 604.505 403.423C605.158 401.232 606.116 399.416 607.379 397.976C608.642 396.535 610.168 395.46 611.957 394.751C613.766 394.021 615.763 393.618 617.949 393.542C619.969 393.471 621.782 393.752 623.388 394.384C625.015 394.994 626.401 395.894 627.548 397.084C628.694 398.274 629.589 399.712 630.231 401.399C630.874 403.086 631.231 404.96 631.303 407.021C631.328 407.729 631.319 408.386 631.278 408.992C631.237 409.598 631.182 410.121 631.114 410.561C631.049 411.085 630.972 411.556 630.882 411.976L610.391 412.598C610.477 414.451 610.728 415.984 611.146 417.2C611.563 418.394 612.148 419.333 612.902 420.015C613.676 420.697 614.63 421.164 615.765 421.416C616.898 421.647 618.236 421.736 619.776 421.682C621.088 421.637 622.262 421.512 623.297 421.309C624.332 421.106 625.21 420.878 625.931 420.623C626.755 420.344 627.494 420.027 628.149 419.67C628.487 420.388 628.75 421.056 628.938 421.675C629.147 422.293 629.301 422.83 629.401 423.285C629.503 423.823 629.582 424.3 629.638 424.715C628.964 425.093 628.142 425.434 627.173 425.739C626.348 425.997 625.335 426.241 624.134 426.471C622.933 426.721 621.542 426.874 619.96 426.929C617.461 427.016 615.224 426.813 613.247 426.319C611.291 425.825 609.614 424.966 608.216 423.743C606.839 422.499 605.76 420.859 604.98 418.822C604.22 416.764 603.788 414.225 603.682 411.206ZM624.629 407.536L624.592 406.474C624.547 405.162 624.34 404.012 623.972 403.025C623.624 402.015 623.157 401.177 622.57 400.51C621.984 399.842 621.3 399.345 620.517 399.018C619.734 398.691 618.895 398.543 618 398.574C616.688 398.62 615.539 398.837 614.552 399.226C613.564 399.594 612.74 400.165 612.079 400.938C611.438 401.69 610.972 402.655 610.679 403.833C610.387 405.01 610.269 406.411 610.326 408.035L624.629 407.536ZM636.732 380.722L643.197 380.496L644.583 420.191L646.472 421.438L646.609 425.373L644.829 425.435L644.764 425.375L644.766 425.438C642.705 425.51 641.098 425.149 639.944 424.355C638.791 423.562 638.181 422.207 638.114 420.292L636.732 380.722ZM651.361 409.229C651.265 406.48 651.545 404.042 652.2 401.914C652.876 399.785 653.856 397.989 655.139 396.527C656.443 395.064 658.008 393.935 659.836 393.142C661.684 392.348 663.733 391.911 665.982 391.833C668.293 391.752 670.387 392.023 672.264 392.645C674.14 393.247 675.748 394.212 677.087 395.541C678.425 396.871 679.474 398.554 680.233 400.591C680.992 402.607 681.419 404.99 681.515 407.738C681.611 410.486 681.342 412.935 680.708 415.083C680.095 417.231 679.158 419.046 677.897 420.528C676.656 422.01 675.122 423.158 673.295 423.972C671.488 424.765 669.44 425.201 667.15 425.281C664.776 425.364 662.63 425.095 660.711 424.474C658.813 423.832 657.184 422.846 655.824 421.518C654.484 420.168 653.425 418.475 652.645 416.438C651.885 414.38 651.457 411.977 651.361 409.229ZM666.97 420.128C668.344 420.08 669.52 419.747 670.499 419.129C671.499 418.49 672.303 417.639 672.912 416.575C673.52 415.491 673.955 414.225 674.218 412.777C674.479 411.309 674.579 409.71 674.519 407.982C674.389 404.255 673.655 401.436 672.316 399.523C670.978 397.61 668.924 396.702 666.155 396.799C664.76 396.847 663.553 397.192 662.533 397.832C661.533 398.451 660.708 399.303 660.058 400.389C659.429 401.474 658.973 402.751 658.691 404.22C658.408 405.689 658.297 407.277 658.357 408.985C658.488 412.753 659.254 415.582 660.654 417.472C662.075 419.34 664.18 420.226 666.97 420.128ZM695.74 436.322L689.056 436.555L687.645 396.142L685.09 393.699L685.021 391.731L690.736 391.531L693.279 393.6L694.436 393.622C694.557 393.493 694.82 393.275 695.227 392.969C695.653 392.642 696.215 392.309 696.912 391.972C697.608 391.615 698.441 391.304 699.412 391.041C700.382 390.757 701.47 390.594 702.678 390.552C704.219 390.498 705.726 390.695 707.201 391.144C708.697 391.592 710.029 392.411 711.196 393.6C712.384 394.788 713.358 396.422 714.119 398.501C714.878 400.559 715.314 403.181 715.425 406.366C715.521 409.115 715.18 411.576 714.401 413.75C713.643 415.924 712.582 417.764 711.217 419.271C709.852 420.778 708.235 421.95 706.368 422.786C704.52 423.601 702.555 424.045 700.473 424.118C699.932 424.137 699.348 424.136 698.722 424.116C698.117 424.096 697.563 424.063 697.061 424.018C696.455 423.977 695.87 423.924 695.305 423.86L695.74 436.322ZM695.137 419.051C695.494 419.143 695.976 419.22 696.583 419.282C697.19 419.344 697.858 419.362 698.586 419.337C700.148 419.282 701.553 418.941 702.803 418.314C704.052 417.666 705.095 416.796 705.933 415.703C706.79 414.589 707.432 413.264 707.858 411.727C708.304 410.19 708.495 408.484 708.429 406.611C708.349 404.299 708.075 402.433 707.608 401.011C707.162 399.567 706.539 398.453 705.741 397.668C704.962 396.861 704.026 396.331 702.933 396.077C701.841 395.824 700.628 395.72 699.295 395.766C698.712 395.787 698.133 395.901 697.556 396.109C696.979 396.296 696.455 396.512 695.984 396.758C695.431 397.027 694.899 397.327 694.39 397.658L695.137 419.051ZM720.361 407.132C720.256 404.134 720.531 401.539 721.184 399.349C721.837 397.158 722.795 395.342 724.058 393.901C725.321 392.46 726.847 391.386 728.636 390.677C730.445 389.947 732.442 389.543 734.628 389.467C736.648 389.397 738.461 389.677 740.067 390.309C741.694 390.919 743.08 391.819 744.227 393.009C745.373 394.199 746.267 395.638 746.91 397.324C747.553 399.011 747.91 400.885 747.982 402.947C748.007 403.655 747.998 404.312 747.957 404.918C747.916 405.524 747.861 406.047 747.793 406.487C747.728 407.01 747.65 407.482 747.561 407.902L727.07 408.524C727.156 410.376 727.407 411.91 727.825 413.125C728.242 414.32 728.827 415.258 729.58 415.941C730.355 416.622 731.309 417.089 732.444 417.342C733.577 417.573 734.915 417.662 736.455 417.608C737.767 417.562 738.94 417.438 739.976 417.235C741.011 417.032 741.889 416.803 742.61 416.549C743.434 416.27 744.173 415.952 744.828 415.596C745.165 416.314 745.428 416.982 745.617 417.601C745.826 418.219 745.98 418.755 746.08 419.211C746.182 419.749 746.261 420.226 746.317 420.641C745.642 421.019 744.82 421.36 743.851 421.665C743.027 421.923 742.014 422.167 740.813 422.396C739.612 422.647 738.221 422.799 736.639 422.855C734.14 422.942 731.902 422.739 729.926 422.245C727.97 421.75 726.293 420.892 724.895 419.669C723.518 418.425 722.439 416.784 721.659 414.748C720.899 412.689 720.467 410.151 720.361 407.132ZM741.308 403.461L741.271 402.399C741.225 401.088 741.018 399.938 740.65 398.95C740.303 397.941 739.835 397.102 739.249 396.435C738.663 395.768 737.979 395.27 737.196 394.943C736.413 394.616 735.574 394.468 734.679 394.5C733.367 394.545 732.218 394.763 731.231 395.152C730.243 395.52 729.419 396.09 728.758 396.864C728.117 397.616 727.65 398.581 727.358 399.758C727.066 400.936 726.948 402.337 727.004 403.961L741.308 403.461ZM758.226 389.175L761.561 392.435C761.772 391.907 762.046 391.407 762.384 390.937C762.742 390.445 763.154 390.014 763.621 389.643C764.108 389.271 764.65 388.971 765.247 388.742C765.864 388.512 766.537 388.384 767.266 388.359C767.87 388.338 768.454 388.369 769.02 388.454C769.585 388.517 770.205 388.652 770.879 388.858C770.901 388.899 770.928 389.065 770.959 389.355C771.011 389.645 771.044 390.009 771.06 390.446C771.071 390.779 771.064 391.176 771.039 391.635C771.012 392.074 770.955 392.534 770.868 393.017C770.801 393.478 770.681 393.941 770.51 394.405C770.359 394.869 770.155 395.272 769.896 395.615L769.308 395.792C768.884 395.598 768.409 395.438 767.884 395.31C767.379 395.182 766.856 395.127 766.315 395.146C765.482 395.175 764.786 395.262 764.229 395.406C763.67 395.53 763.216 395.661 762.866 395.798C762.455 395.958 762.128 396.136 761.885 396.332L762.757 421.317L756.074 421.551L755.159 395.348L752.603 392.904L752.48 389.375L758.226 389.175ZM795.833 398.743L814.322 398.097L814.513 403.563L796.024 404.208L795.833 398.743ZM842.07 376.084L853.282 375.693L864.919 401.802L869.619 413.708L868.792 401.667L867.649 375.191L874.395 374.955L875.876 417.367L864.945 417.749L853.056 391.585L848.349 379.492L849.183 391.721L850.329 418.259L843.552 418.496L842.07 376.084ZM892.403 400.843L878.736 374.804L886.356 374.538L893.687 390.166L895.69 395.6L897.311 390.071L903.627 373.935L911.247 373.669L899.492 400.595L900.048 416.523L892.959 416.771L892.403 400.843ZM913 395.214C912.876 391.654 913.182 388.475 913.918 385.676C914.653 382.857 915.8 380.472 917.358 378.521C918.915 376.549 920.863 375.021 923.201 373.939C925.54 372.857 928.25 372.262 931.331 372.154C932.56 372.111 933.771 372.163 934.964 372.309C936.157 372.434 937.246 372.594 938.233 372.789C939.366 372.999 940.458 373.243 941.51 373.519C941.467 374.062 941.393 374.638 941.289 375.246C941.204 375.791 941.059 376.411 940.854 377.106C940.669 377.78 940.412 378.487 940.084 379.228C939.302 378.943 938.45 378.701 937.526 378.504C936.727 378.324 935.815 378.168 934.789 378.037C933.763 377.906 932.677 377.861 931.532 377.901C929.679 377.965 928.016 378.399 926.543 379.201C925.091 380.002 923.859 381.139 922.848 382.613C921.856 384.065 921.115 385.832 920.625 387.912C920.135 389.993 919.935 392.345 920.027 394.969C920.118 397.571 920.479 399.852 921.11 401.81C921.741 403.769 922.601 405.396 923.688 406.692C924.797 407.987 926.102 408.953 927.604 409.588C929.127 410.202 930.814 410.477 932.667 410.412C933.833 410.371 934.944 410.249 936 410.046C937.056 409.842 937.987 409.622 938.792 409.385C939.741 409.123 940.616 408.811 941.417 408.449C941.663 408.92 941.879 409.444 942.066 410.021C942.229 410.516 942.375 411.115 942.504 411.82C942.653 412.502 942.722 413.282 942.711 414.158C941.744 414.525 940.712 414.842 939.617 415.11C938.688 415.372 937.633 415.607 936.452 415.815C935.292 416.022 934.098 416.147 932.869 416.19C926.54 416.411 921.709 414.766 918.376 411.255C915.042 407.723 913.25 402.377 913 395.214Z" fill="#8630D1"/>
<path d="M67 124L73.7523 142.248L92 149L73.7523 155.752L67 174L60.2477 155.752L42 149L60.2477 142.248L67 124Z" fill="#8630D1"/>
<path d="M42.5 174L53.9789 205.021L85 216.5L53.9789 227.979L42.5 259L31.0211 227.979L0 216.5L31.0211 205.021L42.5 174Z" fill="#8630D1"/>
<path d="M1021.5 299L1032.98 330.021L1064 341.5L1032.98 352.979L1021.5 384L1010.02 352.979L979 341.5L1010.02 330.021L1021.5 299Z" fill="#8630D1"/>
</svg>
